<?xml version="1.0" encoding="UTF-8" standalone="no"?>
<!-- Created with Inkscape (http://www.inkscape.org/) -->

<svg
   version="1.0"
   width="16.845539cm"
   height="24.965086cm"
   id="svg2807"
   sodipodi:version="0.32"
   inkscape:version="1.1.2 (0a00cf5339, 2022-02-04)"
   sodipodi:docname="bg-menu.svg"
   inkscape:output_extension="org.inkscape.output.svg.inkscape"
   xmlns:inkscape="http://www.inkscape.org/namespaces/inkscape"
   xmlns:sodipodi="http://sodipodi.sourceforge.net/DTD/sodipodi-0.dtd"
   xmlns="http://www.w3.org/2000/svg"
   xmlns:svg="http://www.w3.org/2000/svg"
   xmlns:rdf="http://www.w3.org/1999/02/22-rdf-syntax-ns#"
   xmlns:cc="http://creativecommons.org/ns#"
   xmlns:dc="http://purl.org/dc/elements/1.1/">
  <metadata
     id="metadata10">
    <rdf:RDF>
      <cc:Work
         rdf:about="">
        <dc:format>image/svg+xml</dc:format>
        <dc:type
           rdf:resource="http://purl.org/dc/dcmitype/StillImage" />
      </cc:Work>
    </rdf:RDF>
  </metadata>
  <sodipodi:namedview
     inkscape:window-height="667"
     inkscape:window-width="1340"
     inkscape:pageshadow="2"
     inkscape:pageopacity="0.0"
     guidetolerance="10.0"
     gridtolerance="10.0"
     objecttolerance="10.0"
     borderopacity="1.0"
     bordercolor="#666666"
     pagecolor="#ffffff"
     id="base"
     inkscape:zoom="0.51503268"
     inkscape:cx="110.67259"
     inkscape:cy="449.48604"
     inkscape:window-x="10"
     inkscape:window-y="36"
     inkscape:current-layer="g2873"
     inkscape:pagecheckerboard="0"
     showgrid="false"
     units="cm"
     fit-margin-top="0"
     fit-margin-left="0"
     fit-margin-right="0"
     fit-margin-bottom="0"
     inkscape:window-maximized="1"
     inkscape:document-units="cm" />
  <defs
     id="defs2809" />
  <g
     id="layer1"
     transform="translate(-179.82426,93.177399)">
    <g
       id="g2873">
      <g
         id="g829"
         transform="rotate(90,498.16514,378.60374)">
        <path
           d="m 812.38404,694.53582 c -6.80174,-0.99567 -28.48207,-5.62705 -48.17852,-10.29195 -32.95428,-7.80488 -37.41931,-8.39307 -55.95949,-7.37145 -13.32469,0.73424 -20.91563,0.34234 -22.4152,-1.15724 -1.24709,-1.24709 -2.35992,-7.41512 -2.47291,-13.70672 -0.11299,-6.2916 -0.92468,-13.75805 -1.80376,-16.5921 -0.87904,-2.83406 -1.12704,3.21072 -0.5511,13.43284 1.32306,23.48157 -0.12966,25.33374 -16.33131,20.82189 -6.04713,-1.68401 -15.66875,-3.64783 -21.38142,-4.36405 -13.60439,-1.70565 -52.27467,2.5128 -67.93631,7.41102 -16.38441,5.12426 -24.63535,4.88603 -37.45173,-1.08129 -11.95423,-5.56592 -15.97265,-11.09841 -14.13572,-19.46182 0.68517,-3.11964 0.42404,-7.89349 -0.58034,-10.60855 -1.71431,-4.63419 -2.01057,-4.37411 -4.8383,4.2471 -4.63097,14.11899 -11.09498,16.54859 -42.95874,16.14667 -18.21533,-0.22975 -31.03735,0.78692 -43.76168,3.46989 l -17.99751,3.79485 -6.63463,-4.90518 c -5.17088,-3.823 -10.52216,-5.24648 -24.25564,-6.45214 -39.18662,-3.44021 -88.36299,-1.04565 -114.05323,5.55361 -6.55922,1.68494 -12.74111,2.55964 -13.73757,1.94379 -0.99646,-0.61584 -4.29036,-7.60623 -7.3198,-15.53418 -3.02945,-7.92795 -5.81164,-14.41445 -6.18266,-14.41445 -0.37103,0 -2.33024,7.02282 -4.3538,15.6063 -2.57488,10.92214 -4.89732,16.25824 -7.73772,17.77836 -5.91833,3.1674 -48.07199,0.21242 -70.27744,-4.92643 -26.82841,-6.20874 -32.10077,-5.95226 -42.69106,2.0769 -15.39538,11.67218 -23.831656,14.71666 -40.856588,14.74434 -11.989519,0.0195 -17.77112,-1.06546 -25.764132,-4.83478 -19.410283,-9.15346 -25.153095,-21.45377 -22.931311,-49.11573 0.755096,-9.4012 2.227479,-35.64327 3.271963,-58.31571 1.044483,-22.67243 3.072008,-52.81647 4.505611,-66.98674 3.846172,-38.01702 3.368014,-170.81885 -0.834884,-231.87719 -4.52198,-65.69387 -6.340892,-135.50029 -3.866824,-148.4014 1.608373,-8.3869 3.720672,-11.88848 11.345231,-18.80711 12.517037,-11.35813 37.775157,-23.403033 75.959144,-36.22284 30.02396,-10.080177 32.8725,-10.644334 61.37174,-12.154833 16.4375,-0.87121 35.77299,-2.252067 42.96775,-3.068571 9.9658,-1.130978 13.48737,-0.827604 14.78611,1.273779 1.35364,2.190251 2.331,2.238592 4.74551,0.234718 2.35288,-1.952721 9.73216,-2.043917 32.6199,-0.40313 16.26851,1.166265 36.99919,2.139862 46.06816,2.163549 22.40108,0.05851 32.28858,1.887224 33.41101,6.179447 0.62025,2.371815 2.42197,3.203519 5.61678,2.592792 2.58699,-0.494535 13.878,0.969475 25.09111,3.253356 11.21309,2.283881 27.55783,4.793008 36.32158,5.575838 15.66603,1.39938 15.96704,1.336701 17.89178,-3.72568 1.07668,-2.831953 4.63618,-7.056296 7.90995,-9.387429 5.63955,-4.015706 8.86918,-4.245716 61.46175,-4.37718 30.53019,-0.07632 62.92952,-0.913938 71.99849,-1.861384 28.60625,-2.988525 41.66971,4.663653 29.70455,17.400001 -4.98665,5.308025 -4.04894,9.325768 1.16636,4.99746 2.1154,-1.755624 9.38673,-2.494347 22.20695,-2.256097 12.23413,0.227357 27.68046,-1.24975 43.12408,-4.123887 18.89326,-3.516134 26.63847,-4.090813 36.05432,-2.67516 10.94613,1.64573 12.29926,2.432109 15.5154,9.016927 1.9379,3.967676 3.56799,5.734568 3.62244,3.926429 0.0545,-1.808142 1.91875,-4.934376 4.14287,-6.947185 3.40231,-3.079041 6.1788,-3.431025 17.50049,-2.218576 l 13.4566,1.44108 -1.06735,-5.830113 c -1.84441,-10.074439 1.25615,-12.04271 18.52478,-11.759726 15.33799,0.251346 15.79814,0.422133 47.98551,17.810465 43.90344,23.71761 87.6638,49.77823 96.2599,57.32569 11.97625,10.5153 11.22004,22.73124 -2.30285,37.2012 l -5.05812,5.41235 6.83926,1.28621 c 9.4129,1.77021 30.8732,12.23098 34.81357,16.96978 6.62446,7.96672 8.69288,20.10848 7.3933,43.39867 -1.91774,34.36835 -4.09433,43.87752 -14.39034,62.86938 -10.5953,19.54395 -21.60608,49.87119 -30.32556,83.52632 -9.59673,37.04112 -11.18205,66.44259 -8.33836,154.64273 1.3443,41.69478 3.25767,85.54752 4.25194,97.45054 2.94212,35.22194 0.0452,49.20671 -11.02229,53.20875 -7.88652,2.8518 -77.7315,2.87552 -97.14969,0.033 z M 450.65562,90.972237 c 0,-1.133622 -0.9275,-2.06113 -2.06113,-2.06113 -1.13362,0 -2.06112,0.927508 -2.06112,2.06113 0,1.133622 0.9275,2.061131 2.06112,2.061131 1.13363,0 2.06113,-0.927509 2.06113,-2.061131 z"
           style="fill:#e6e2d2"
           id="path2865" />
        <path
           d="m 814.44517,694.43369 c -5.66811,-1.0688 -27.66736,-6.14561 -48.88722,-11.28181 -34.99039,-8.46928 -40.45789,-9.26919 -58.73955,-8.59382 l -20.15799,0.74469 -1.47744,-14.78348 c -0.81257,-8.13089 -2.89475,-17.86974 -4.62703,-21.64187 -3.03417,-6.60704 -3.09751,-6.25407 -1.7283,9.63065 1.82709,21.19646 1.65736,27.60584 -0.79595,30.05914 -1.27741,1.2774 -6.72523,0.7723 -15.23279,-1.41237 -18.32322,-4.70525 -64.74219,-3.00084 -85.3772,3.1349 -16.83353,5.00537 -27.42369,5.41456 -36.65781,1.41642 -12.92241,-5.59508 -14.78514,-8.19655 -15.89961,-22.20519 -1.17336,-14.74898 -3.64941,-15.65237 -8.31104,-3.03232 -4.78241,12.94712 -9.60732,14.41707 -48.37801,14.73884 -20.00133,0.166 -35.26126,1.22835 -38.78037,2.69977 -8.63036,3.60856 -16.67685,2.95148 -22.79559,-1.86151 -11.9672,-9.41341 -101.05536,-9.83685 -136.98917,-0.65111 -7.21113,1.84337 -13.77527,2.54341 -14.65247,1.56262 -0.87401,-0.97722 -4.21916,-9.11914 -7.4337,-18.09318 -3.21454,-8.97404 -6.32073,-15.00284 -6.90262,-13.39735 -0.5819,1.6055 -2.95208,10.33915 -5.26706,19.40812 l -4.20903,16.48905 -26.96918,-0.35705 c -19.08659,-0.2527 -32.23701,-1.60818 -44.99234,-4.63754 -27.28545,-6.4803 -33.80983,-5.91504 -46.37592,4.0179 -13.807915,10.91451 -18.507705,12.48839 -37.416348,12.52994 -17.440897,0.0383 -26.072533,-2.67666 -36.522043,-11.48758 -10.666721,-8.99408 -13.394647,-17.70524 -11.961365,-38.19659 0.673982,-9.63578 2.118104,-31.89599 3.209158,-49.46713 1.091055,-17.57114 3.566197,-49.57019 5.500316,-71.109 5.213214,-58.0556 4.745132,-167.02135 -1.063192,-247.50285 -2.461029,-34.10059 -4.682787,-79.54852 -4.93724,-100.99539 -0.520274,-43.85188 0.1502,-46.56969 14.43756,-58.52341 C 63.10663,95.695042 131.16165,69.694891 163.1045,66.152648 c 43.29844,-4.801501 72.03654,-6.476701 72.78125,-4.242562 0.96836,2.905091 6.59569,2.974641 6.59569,0.08152 0,-1.445288 4.71393,-1.7719 13.91263,-0.963958 7.65195,0.672088 29.21652,2.084815 47.92128,3.139394 18.70476,1.054579 37.1088,2.548956 40.89786,3.320836 6.43602,1.311103 6.8012,1.824606 5.5514,7.806347 -0.73582,3.52161 -1.70992,10.112962 -2.16469,14.647449 l -0.82684,8.244522 2.03583,-8.458492 c 1.11973,-4.652172 4.095,-10.353908 6.6117,-12.670526 l 4.57583,-4.212032 22.67244,4.882072 c 13.21067,2.844666 29.76875,4.906784 39.67676,4.941285 15.60962,0.05436 17.00434,-0.276499 17.00434,-4.033803 0,-2.492262 3.22669,-6.228349 8.25045,-9.55291 8.23158,-5.447402 8.31404,-5.456525 36.0397,-3.987223 16.30216,0.863923 45.64538,0.448299 70.9864,-1.005467 23.75843,-1.362976 45.54165,-1.889707 48.40715,-1.170512 2.86551,0.719195 6.24742,3.246049 7.51536,5.61523 1.93892,3.622907 1.42513,5.22638 -3.23249,10.087875 -4.17163,4.354246 -5.17307,6.929583 -4.05926,10.438912 l 1.47861,4.658639 3.75572,-4.979077 c 3.54661,-4.701847 4.76651,-4.944024 21.9094,-4.349534 12.23586,0.424323 25.20862,-0.749922 39.79558,-3.602145 22.55913,-4.411047 34.09154,-5.155092 45.26499,-2.9204 6.2947,1.258938 7.86433,3.197855 11.32629,13.990984 1.10113,3.432831 1.7602,3.008776 4.80524,-3.091696 l 3.52908,-7.070224 15.82027,0.367959 15.82027,0.367959 -1.08853,-6.707935 c -1.74901,-10.777824 3.47462,-14.409517 18.47132,-12.842051 10.54576,1.102248 18.06662,4.550765 56.79726,26.043057 55.25111,30.659779 84.30766,48.814819 89.57105,55.965529 6.02668,8.18772 3.38068,18.19009 -7.93645,30.00129 -5.04206,5.2622 -9.16739,9.84226 -9.16739,10.17793 0,0.33566 2.70474,0.0694 6.01052,-0.59181 13.90301,-2.7806 40.93562,11.89304 46.51638,25.24968 4.0054,9.58626 4.01354,35.51996 0.0182,58.10996 -2.25075,12.72614 -5.655,22.13211 -13.24425,36.59417 -10.99077,20.94393 -28.63836,72.02852 -34.1315,98.80063 -1.86076,9.06897 -4.14367,28.0829 -5.07312,42.25317 -1.9125,29.15822 0.68467,147.21971 4.18657,190.31109 3.19255,39.28482 0.77611,53.51758 -9.94413,58.57043 -6.52511,3.07551 -78.07722,3.12521 -94.30352,0.0655 z m 18.2726,-15.52396 c -1.79772,-5.93437 -2.44242,-12.93098 -1.63689,-17.76435 1.24694,-7.48207 16.58982,-52.96704 28.46092,-84.37436 12.95072,-34.26368 15.951,-89.57308 11.53794,-212.69898 -1.50335,-41.94401 -2.80353,-89.71071 -2.88927,-106.14823 -0.14847,-28.4604 0.11454,-30.46376 5.5122,-41.98697 3.11746,-6.65531 5.66811,-12.40854 5.66811,-12.78495 0,-0.37641 -4.50985,-0.15026 -10.0219,0.50256 -5.76008,0.6822 -13.28548,0.10987 -17.69639,-1.34586 -8.34648,-2.75459 -21.74885,-13.42238 -21.74885,-17.3113 0,-1.33157 -3.21403,-9.12761 -7.14231,-17.32453 -9.0516,-18.88751 -39.73602,-51.68113 -53.19653,-56.85317 -5.33504,-2.04992 -10.02953,-5.67494 -12.11758,-9.357 -1.8747,-3.305862 -5.21139,-6.975511 -7.41486,-8.154776 -3.67055,-1.964429 -4.29177,-0.961466 -7.41238,11.967696 -1.87334,7.7615 -3.40607,15.92224 -3.40607,18.13499 0,5.70788 -6.01233,10.36644 -14.42791,11.17927 l -7.21397,0.69677 0.7027,-9.19155 c 0.70606,-9.23579 -1.6196,-19.85602 -7.1919,-32.842134 l -3.0013,-6.994468 -16.98336,1.305444 c -9.34084,0.717993 -21.45423,2.828826 -26.91864,4.690738 -7.46092,2.542194 -14.46794,3.126852 -28.13519,2.347582 -19.51979,-1.112969 -20.49827,-0.645078 -20.49827,9.801828 0,2.66754 -0.91875,7.26655 -2.04166,10.22002 -1.775,4.66865 -2.60533,5.06827 -6.35788,3.05997 -7.29099,-3.90201 -10.74752,-15.55245 -9.65679,-32.548587 0.78429,-12.220625 0.37212,-15.362459 -2.14193,-16.327188 -1.7122,-0.657033 -17.26378,0.468296 -34.55908,2.50073 -30.37012,3.568908 -63.49366,3.520477 -89.0339,-0.130182 -6.50872,-0.93034 -10.21296,-0.321835 -14.28576,2.346774 l -5.49854,3.602793 8.89515,3.314985 c 9.79744,3.651234 19.74637,14.525534 10.64727,11.637591 -4.00268,-1.270402 -6.359,0.302012 -15.02813,10.028574 -5.65465,6.34437 -11.62121,11.53521 -13.25903,11.53521 -3.31121,0 -6.99808,-8.04374 -6.99808,-15.267902 0,-4.523499 -0.99138,-4.78391 -27.30998,-7.173653 -15.02049,-1.363869 -30.46777,-3.027587 -34.32729,-3.697151 l -7.0173,-1.217392 1.35113,9.857554 c 0.86486,6.309774 0.49824,10.885204 -1.01858,12.712894 -1.78828,2.15473 -1.76142,4.88565 0.10944,11.13005 2.40704,8.03394 2.19642,8.75351 -7.23762,24.72981 -5.34424,9.05031 -10.72754,16.15384 -11.96289,15.78562 -4.80163,-1.4312 -12.20193,-20.79171 -13.85977,-36.25971 -4.22654,-39.434193 -5.15502,-45.712883 -7.03842,-47.59628 -2.18991,-2.189916 -49.81268,-8.29986 -64.92658,-8.330005 l -9.378,-0.0187 -2.58123,12.497166 c -3.01137,14.579593 -6.59765,15.594199 -14.0594,3.977611 -9.34366,-14.546313 -10.25338,-15.37258 -16.37499,-14.872806 -39.06501,3.189305 -85.52647,12.09606 -96.30361,18.461598 -0.95421,0.563607 3.68334,3.211525 10.30567,5.884261 6.62232,2.672736 14.23982,7.385285 16.92778,10.472335 4.30329,4.94221 4.76635,7.10355 3.87561,18.0897 -1.2784,15.76757 -12.59346,49.68709 -27.0177,80.99187 -11.41651,24.77711 -25.64122,65.85843 -31.412185,90.71919 -8.410071,36.22971 -11.514339,67.12962 -12.622688,125.64637 -1.47358,77.79971 1.6523,102.49801 20.030093,158.26251 11.0719,33.59589 14.36799,48.82328 14.40394,66.54397 0.0288,14.20272 0.24631,14.9002 4.01722,12.88207 6.10958,-3.26974 14.80961,-2.58862 35.66425,2.79215 20.12501,5.1925 54.57244,8.70413 58.5285,5.96648 2.84503,-1.96881 11.91176,-30.19099 14.90511,-46.39547 1.19886,-6.49009 3.60678,-14.55975 5.35094,-17.93254 1.74412,-3.37277 3.20046,-8.72905 3.23628,-11.9028 l 0.0651,-5.77047 4.84749,5.5038 c 4.49973,5.10897 9.45015,24.13639 9.45015,36.32264 0,2.41363 2.07863,6.32495 4.61916,8.69181 3.51219,3.27211 4.62357,6.62549 4.63755,13.99293 0.0173,9.10995 0.32658,9.65529 5.1712,9.11709 2.83406,-0.31484 34.16323,-1.4415 69.62035,-2.50366 65.01837,-1.94771 66.87844,-1.82233 78.78105,5.3104 5.70668,3.41979 17.95028,2.7419 27.96856,-1.54851 3.49012,-1.49467 15.01156,-2.62054 27.29062,-2.66681 l 21.25052,-0.0801 8.63587,-9.36913 c 4.74973,-5.15304 9.7057,-11.18184 11.01328,-13.39735 2.24391,-3.802 2.71666,-3.84205 8.41813,-0.71319 5.95125,3.26592 6.07315,3.22913 8.22939,-2.4834 3.71878,-9.85218 9.81096,-9.53036 36.93376,1.95113 23.09907,9.77817 45.69182,17.1396 70.42881,22.94797 6.03031,1.41593 12.739,4.47947 14.90822,6.80785 3.82649,4.10726 4.06793,4.12129 8.10127,0.47117 4.9752,-4.50249 5.22418,-9.88668 1.00957,-21.83219 -2.37311,-6.72609 -2.6267,-10.41595 -1.03056,-14.99462 1.1644,-3.34023 2.1171,-8.40391 2.1171,-11.25262 0,-6.1289 8.89073,-22.07722 13.2372,-23.74513 3.17377,-1.21788 4.01547,0.51299 6.34638,13.05068 0.73767,3.96768 4.03133,13.82143 7.31928,21.89725 3.28798,8.0758 6.57588,19.76923 7.30646,25.98539 l 1.32834,11.30211 22.93851,1.20207 c 17.39546,0.91158 29.41338,3.01228 49.73319,8.69321 43.48909,12.15853 55.39543,15.19282 60.08634,15.31284 4.33775,0.11097 4.37026,-0.10299 1.47,-9.67688 z M 483.37079,103.8543 c -2.56378,-3.26907 -2.49088,-3.34197 0.77821,-0.77819 3.43332,2.6926 4.52517,4.38517 2.82878,4.38517 -0.42799,0 -2.05114,-1.62314 -3.60699,-3.60698 z m 410.04144,576.7301 c 0.51528,-1.54585 -0.25764,-2.31878 -1.80349,-1.80349 -1.48788,0.49597 -3.11101,2.11909 -3.60698,3.60697 -0.51528,1.54585 0.25764,2.31878 1.80349,1.80349 1.48789,-0.49597 3.11101,-2.11909 3.60698,-3.60697 z M 604.20986,665.30375 c 18.97127,-2.19057 21.49478,-2.87328 15.45847,-4.18203 -12.22824,-2.65126 -45.6883,-13.99658 -59.44965,-20.15761 -7.19081,-3.21939 -13.41883,-5.85341 -13.84009,-5.85341 -0.42126,0 -1.75871,1.85502 -2.97209,4.12226 -1.58292,2.95773 -1.55123,5.34604 0.1122,8.4542 1.95892,3.66026 1.44139,5.24733 -3.33764,10.23558 l -5.65606,5.90365 4.95603,1.83526 c 2.72583,1.00939 6.34729,2.42149 8.04773,3.13803 3.58661,1.51128 24.47324,0.22307 56.6811,-3.49593 z M 59.622301,649.54632 c 5.421114,-0.004 13.073061,1.33624 17.004327,2.97881 7.910129,3.30507 7.81644,3.45308 5.15212,-8.13934 -1.042174,-4.53449 -4.452176,-26.7947 -7.577782,-49.46713 -5.226172,-37.90947 -5.64772,-45.861 -5.245,-98.93427 0.535686,-70.59605 3.582896,-135.32138 7.665858,-162.82931 5.829223,-39.27291 16.422579,-75.05235 40.276296,-136.03462 11.06349,-28.28391 13.0315,-35.33484 13.82594,-49.53502 0.76055,-13.59424 0.32212,-17.05836 -2.45019,-19.35917 -4.7197,-3.917 -5.6836,-2.0179 -2.82272,5.56141 2.06246,5.46408 1.80992,8.00283 -1.61918,16.27685 -5.16661,12.4665 -17.2409,21.8695 -35.208671,27.41918 -17.137322,5.29318 -30.563712,5.33529 -40.777752,0.12787 l -7.944629,-4.0504 1.427212,30.32981 c 0.784966,16.6814 2.742662,46.80123 4.350436,66.93294 7.434289,93.08841 5.749554,196.67553 -5.22022,320.96917 -2.249481,25.48788 -4.089965,50.74884 -4.089965,56.13551 v 9.79393 l 6.698674,-4.08425 c 4.204601,-2.5636 10.368505,-4.08714 16.555246,-4.09197 z m 821.684019,2.05343 c 5.09458,0 13.25645,1.52517 18.13752,3.38926 4.88108,1.86411 9.16993,3.02349 9.53081,2.57641 0.36089,-0.44706 -0.15384,-9.62418 -1.14384,-20.39359 -0.99003,-10.7694 -2.00159,-63.17365 -2.24795,-116.45387 l -0.44795,-96.87314 5.61809,-25.97344 c 7.23821,-33.46365 15.04651,-55.59345 32.65238,-92.54157 12.76319,-26.78509 19.98002,-48.67896 16.98462,-51.52664 -0.59716,-0.5677 -2.60749,1.26466 -4.46741,4.07192 -7.25837,10.95538 -16.06958,19.40795 -23.9753,22.99945 -9.05609,4.1141 -29.79817,5.14877 -36.05791,1.79867 -8.11188,-4.34136 -11.30031,-27.34654 -5.37753,-38.79995 6.41554,-12.40626 20.07388,-16.8166 21.48065,-6.93619 0.83267,5.84826 5.26441,4.81227 6.1827,-1.4453 1.41613,-9.65011 -9.66983,-14.50614 -24.19026,-10.5962 -16.89843,4.55028 -18.03846,13.96248 -13.48718,111.3512 2.59828,55.59772 3.14104,90.56157 2.07972,133.97349 -0.78984,32.30822 -1.24932,60.59724 -1.0211,62.86448 0.22825,2.26724 0.39906,12.93359 0.37958,23.703 -0.0295,16.30816 -1.62473,25.96516 -9.54481,57.78042 -5.23017,21.00982 -9.50942,39.38072 -9.50942,40.82419 0,1.9501 1.17718,1.80003 4.58089,-0.58404 2.51946,-1.7647 8.74915,-3.20856 13.8437,-3.20856 z m 41.05355,-373.23249 c 3.95734,-3.68683 4.51924,-6.05505 3.99563,-16.84074 -0.33511,-6.90284 -1.60772,-12.87975 -2.82803,-13.28203 -1.22031,-0.40228 -4.69846,1.56672 -7.72924,4.37554 -4.51311,4.18261 -5.51049,6.91543 -5.51049,15.09879 0,8.87102 2.52107,14.93856 6.20697,14.93856 0.69315,0 3.33245,-1.93056 5.86516,-4.29012 z M 871.55639,172.90499 c -0.84098,-15.1604 4.34773,-22.88619 20.16782,-30.0291 6.73412,-3.04052 12.27452,-6.21221 12.31199,-7.04821 0.0891,-1.98696 -9.08299,-7.70539 -48.61096,-30.30703 C 806.35457,77.462581 785.99322,67.56674 780.754,69.229603 c -8.71445,2.765859 -4.84571,9.288408 21.85795,36.851627 29.15288,30.09125 44.65462,48.0709 51.96246,60.26845 6.07133,10.1337 12.47246,17.37257 15.36527,17.37624 1.37711,0.002 1.98965,-4.09816 1.61671,-10.82093 z m 29.45434,-1.54558 c 0.73379,-1.18726 -0.74088,-1.84133 -3.48533,-1.54584 -4.06364,0.43751 -4.75662,-0.42647 -4.75293,-5.92572 0.003,-4.31051 -0.84848,-6.11067 -2.57643,-5.44759 -3.5889,1.37719 -3.22573,7.85437 0.65818,11.73828 3.68423,3.68423 8.27919,4.21847 10.15651,1.18087 z M 94.335675,161.84989 c 5.793775,-5.24329 4.7825,-8.13357 -5.20398,-14.87336 -11.187901,-7.55063 -13.601833,-5.84633 -13.601833,9.60323 v 11.19367 l 7.469595,-1.21214 c 4.108278,-0.66669 9.209576,-2.78681 11.336218,-4.7114 z m 0.8552,-21.5404 c 0.74476,-1.20505 -0.10905,-3.80779 -1.89736,-5.78385 -2.965014,-3.2763 -2.948214,-3.8961 0.19068,-7.035 4.86454,-4.86454 1.43509,-7.1225 -5.189131,-3.41654 -7.248887,4.05544 -8.203088,10.87367 -2.11821,15.13569 5.519017,3.86567 7.179361,4.06823 9.014021,1.0997 z M 451.80843,89.108895 c -1.69041,-2.735135 -7.3362,-3.017081 -7.3362,-0.366362 0,1.040904 0.59058,3.431597 1.3124,5.312649 1.15936,3.021184 1.66861,3.063915 4.36617,0.366363 1.67955,-1.679551 2.42548,-4.070244 1.65763,-5.31265 z"
           style="fill:#b7b8a7"
           id="path2863" />
        <path
           d="M 778.37538,684.42309 C 733.0736,672.95541 728.60526,672.19681 709.33343,672.70175 l -20.60542,0.53987 -1.47635,-13.39735 c -1.55924,-14.14958 -6.63255,-29.94563 -10.35716,-32.24756 -2.16853,-1.34023 -1.04289,23.8967 1.6899,37.88737 0.63259,3.23853 -0.0806,7.3052 -1.65298,9.42499 -2.28242,3.07706 -3.75445,3.35264 -8.4245,1.5771 -19.91508,-7.57171 -63.43074,-6.56782 -91.09177,2.10146 -20.79413,6.51711 -37.92251,4.33349 -47.13501,-6.00906 -2.72209,-3.05599 -3.4507,-5.91967 -2.48506,-9.76708 0.75143,-2.99387 0.30886,-8.64722 -0.98347,-12.563 -3.2685,-9.90365 -8.3329,-8.33548 -11.7114,3.62642 -3.82799,13.55329 -7.48271,14.73906 -46.92498,15.22466 -19.2632,0.23717 -35.39114,1.39718 -38.78037,2.78933 -8.60926,3.53626 -16.6853,2.90205 -22.63435,-1.77748 -11.47716,-9.02794 -87.83521,-10.16657 -129.20348,-1.92666 -10.74939,2.14112 -20.21104,3.22624 -21.0259,2.4114 -3.01859,-3.01859 -11.98856,-29.60441 -11.98856,-35.53251 0,-12.30528 -3.88907,-5.65348 -8.16169,13.95968 -2.4078,11.05282 -5.15218,21.48729 -6.09861,23.18772 -2.68715,4.82793 -49.55642,3.58517 -72.30718,-1.91726 -26.49714,-6.40853 -32.65409,-5.85887 -45.16731,4.03227 -13.820745,10.92467 -18.853405,12.63642 -37.277918,12.67938 -16.979542,0.0395 -24.269376,-2.07332 -34.759736,-10.07471 -10.747334,-8.19738 -15.519519,-21.07526 -13.918252,-37.55878 18.835378,-193.89255 19.30279,-243.05114 4.20374,-442.1153 -1.811375,-23.88096 -2.799495,-47.76216 -2.195822,-53.06934 2.897963,-25.47736 19.533243,-39.3555 69.566533,-58.036548 34.380465,-12.836717 54.019215,-17.565188 86.835315,-20.907564 17.30062,-1.762096 35.38142,-3.753125 40.17956,-4.424508 8.01207,-1.121094 8.89083,-0.781599 10.76991,4.160773 2.54092,6.683117 6.27033,7.021837 6.27033,0.569497 0,-4.721275 0.3205,-4.796054 17.00433,-3.967426 21.5285,1.069247 25.14189,2.222168 7.62617,2.433285 -15.2261,0.183521 -18.44712,2.219233 -18.44712,11.658791 0,8.648387 -4.40762,12.473522 -8.71366,7.56211 -1.7358,-1.979836 -4.74224,-6.728782 -6.68098,-10.553214 -3.42852,-6.763304 -3.7877,-6.917263 -13.13061,-5.628285 -5.28311,0.728877 -18.41698,2.270568 -29.1864,3.425982 -25.56057,2.742308 -82.48884,17.01319 -79.55823,19.943802 0.57467,0.574677 5.44558,1.86701 10.82424,2.871854 20.94476,3.912904 31.63364,12.620651 31.63364,25.770491 0,14.16419 -12.44985,50.69977 -30.84189,90.50928 -9.83554,21.289 -23.753625,63.27751 -29.007135,87.50966 -14.821154,68.3636 -17.556372,174.66433 -5.958648,231.57534 2.303732,11.3046 8.718368,34.59374 14.254743,51.75364 11.78766,36.53563 15.4144,55.08745 13.80937,70.63876 -1.11931,10.84503 -0.99413,11.21715 3.34719,9.94863 12.21519,-3.56928 18.1019,-3.29596 36.50091,1.69482 21.49925,5.83172 64.32103,9.63529 66.61887,5.91732 0.72035,-1.16557 4.16612,-13.52355 7.65724,-27.46217 3.49113,-13.93862 7.72954,-28.01546 9.41866,-31.28188 5.72985,-11.08033 10.31405,-3.53929 10.82997,17.81538 0.13412,5.55172 2.2533,15.60513 4.70929,22.34092 l 4.46544,12.24687 8.41663,-1.35864 c 4.62914,-0.74726 37.57843,-1.82869 73.22063,-2.40319 63.93585,-1.03053 64.91222,-0.9837 72.88294,3.49611 9.32536,5.24112 22.2612,4.74089 35.04485,-1.35519 6.49975,-3.09953 8.98608,-3.26088 18.04081,-1.17079 12.93502,2.98576 31.78378,3.14522 37.0746,0.31366 2.28197,-1.22126 5.32139,-6.85012 7.21365,-13.35925 1.79854,-6.1868 4.20543,-11.82681 5.34861,-12.53335 1.14321,-0.70651 4.37749,0.87518 7.18736,3.51489 4.317,4.0556 5.40652,4.32866 7.02981,1.76179 1.05655,-1.67073 1.93521,-4.6282 1.95258,-6.57216 0.0173,-1.94396 1.92809,-4.54945 4.2461,-5.79 3.4753,-1.85993 8.4464,-0.39708 28.34055,8.3398 13.26929,5.82746 32.47356,12.92968 42.67616,15.78274 22.06162,6.16931 28.76942,9.46471 15.45849,7.59446 -9.92849,-1.39501 -47.73806,-13.71037 -65.27602,-21.26178 -14.96197,-6.44224 -18.19679,-5.35337 -18.21198,6.13034 -0.01,7.36125 -0.68899,9.117 -3.35791,8.67951 -4.01884,-0.65878 -6.49174,6.93702 -3.85961,11.85521 2.31333,4.3225 15.27546,8.27917 27.04959,8.25684 4.96979,-0.009 18.94479,-1.32557 31.05555,-2.92482 14.81357,-1.95616 31.25136,-2.52064 50.22934,-1.72494 l 28.20977,1.18278 -1.339,-24.53737 c -0.96967,-17.76962 -0.57427,-27.37979 1.4336,-34.843 3.29037,-12.23017 8.04688,-13.72806 9.81775,-3.0917 0.66057,3.96768 3.76871,13.5959 6.90695,21.39607 3.13823,7.80014 6.15173,17.53898 6.69667,21.64187 2.35779,17.75249 1.25704,16.73485 18.10128,16.73485 18.95236,0 38.8045,3.74132 76.17255,14.35538 30.07255,8.54186 48.68685,12.67089 50.91481,11.29393 0.70587,-0.43624 -0.37092,-5.6799 -2.39287,-11.65256 -2.09498,-6.18842 -3.18305,-13.52887 -2.52961,-17.06561 1.41122,-7.63826 21.01552,-65.30667 29.23432,-85.99632 3.31487,-8.34471 7.60882,-25.34098 9.5421,-37.7695 3.90072,-25.07649 5.5525,-29.79547 5.00688,-14.30418 -0.19869,5.64138 0.61325,14.37014 1.80431,19.39722 2.65326,11.19851 0.21554,34.35962 -5.76298,54.7549 -2.32611,7.93535 -6.57902,24.85144 -9.45092,37.59131 -5.6852,25.21989 -5.30017,35.30434 1.6118,42.21632 4.40509,4.40509 3.644,6.95199 -1.48883,4.98233 -1.80053,-0.69093 -4.70817,-4.6895 -6.46148,-8.88574 -3.90008,-9.33418 -2.76096,-20.75286 5.43507,-54.4832 5.51893,-22.71277 9.91136,-49.4061 7.76439,-47.18515 -0.54791,0.56681 -7.36716,18.18947 -15.15385,39.16148 -12.12766,32.66356 -14.16442,40.07225 -14.20502,51.67031 -0.0398,11.38134 0.86073,14.913 5.64997,22.15716 l 5.69736,8.61775 h 18.54339 c 22.97443,0 35.44749,-4.82412 39.04534,-15.10131 2.00282,-5.72108 1.75235,-6.97789 -1.99914,-10.03107 -2.35885,-1.91977 -9.46838,-5.42842 -15.79893,-7.79699 -10.57286,-3.9558 -11.90866,-4.04533 -16.40454,-1.09953 -2.69194,1.76384 -4.89444,5.09535 -4.89444,7.40336 0,2.30801 -0.9275,3.62316 -2.06113,2.92254 -1.13363,-0.70062 -2.06113,-3.969 -2.06113,-7.26308 0,-10.96888 12.40699,-13.2683 32.01242,-5.93296 6.35566,2.37795 11.97441,3.90489 12.48611,3.39322 0.51169,-0.5117 -0.0858,-14.28304 -1.32781,-30.60299 -1.24195,-16.31995 -2.42024,-68.16424 -2.61839,-115.20955 -0.34331,-81.50481 -0.13703,-86.70284 4.37613,-110.27048 6.40801,-33.4626 16.16996,-61.70524 34.86574,-100.87134 15.60413,-32.68937 15.68757,-32.95441 16.64696,-52.87823 1.2298,-25.5391 -0.28256,-33.16674 -8.41182,-42.42546 -16.98832,-19.34862 -39.29595,-19.70816 -64.64733,-1.04195 -7.753,5.70852 -8.88812,7.72505 -11.96603,21.25756 -4.18043,18.37991 -4.21157,38.04383 -0.22388,141.36111 1.71744,44.49719 2.42113,89.78089 1.61748,104.0871 l -1.42256,25.32321 -1.36669,-17.51961 c -0.75168,-9.63578 -1.47913,-35.14227 -1.61657,-56.68109 -0.13744,-21.53881 -1.14259,-58.25247 -2.23366,-81.58589 -1.09107,-23.33342 -2.19635,-58.57876 -2.4562,-78.32296 l -0.47243,-35.89855 6.49564,-13.87019 c 7.58094,-16.18766 6.92749,-17.25444 -9.99215,-16.31232 -8.51726,0.47426 -13.74666,-0.45417 -19.71864,-3.50085 -10.1737,-5.19023 -11.62216,-6.96269 -17.11377,-20.94175 -2.44823,-6.23209 -7.19228,-15.96861 -10.54228,-21.63672 l -6.09095,-10.30565 8.00545,8.6815 c 4.4929,4.87234 9.97566,14.08502 12.49579,20.99668 5.28178,14.48583 13.05523,21.89739 25.10106,23.93252 11.08978,1.87361 15.0103,-1.57489 6.68494,-5.8801 -3.31613,-1.71484 -9.58941,-8.51821 -13.94062,-15.1186 -4.35121,-6.60038 -11.69611,-16.63824 -16.32197,-22.30635 -11.45923,-14.04104 -59.35502,-63.623414 -62.81619,-65.028171 -1.59245,-0.646315 -3.08527,-5.066822 -3.4748,-10.289417 -0.82885,-11.113541 3.12694,-16.406042 12.25427,-16.395018 l 6.37922,0.0077 -6.69868,4.084261 c -11.91704,7.265969 -9.89002,11.601093 19.62815,41.977875 30.52876,31.41675 41.53155,44.24218 53.02331,61.80671 7.9998,12.22728 19.83188,21.39495 28.13682,21.80082 2.97116,0.1452 14.55889,-6.56901 30.2576,-17.53198 5.8132,-4.05957 12.6997,-14.91782 12.71027,-20.04088 0.004,-2.0517 -4.73268,-8.74264 -10.52652,-14.86875 l -10.53423,-11.1384 11.55119,6.25639 c 12.16865,6.59083 17.76179,12.57094 17.76179,18.99069 0,7.87373 -7.12586,18.46581 -17.89084,26.59344 -6.09083,4.59864 -10.72477,8.71063 -10.29765,9.13777 0.42716,0.42714 5.40248,-0.29116 11.05629,-1.59622 12.37656,-2.85685 25.90275,0.80084 39.24416,10.61222 13.12309,9.65083 15.7673,17.40398 14.3419,42.05237 -1.43892,24.88277 -6.80649,43.53651 -19.01789,66.09225 -9.32031,17.21559 -24.57743,61.35784 -31.87112,92.2102 -6.82146,28.855 -8.40869,65.18181 -6.14738,140.69755 1.1202,37.40952 3.01628,80.07492 4.21347,94.81201 2.85439,35.13683 1.25199,49.44283 -6.3946,57.0894 l -5.77506,5.77508 -38.80476,-0.13016 -38.80473,-0.13014 z m -682.236595,-8.0885 c 6.709205,-3.59065 10.724285,-15.48626 11.869635,-35.16649 1.00954,-17.34695 0.81223,-18.28188 -11.657725,-55.23702 C 89.374144,565.25579 82.28227,541.19727 80.590976,532.46768 75.54405,506.41802 72.87493,454.01367 74.32361,409.41691 c 2.873191,-88.44952 9.894783,-120.60337 47.32514,-216.71505 27.9054,-71.65403 28.87378,-79.27947 11.0928,-87.35036 -17.19316,-7.804079 -59.945671,-2.75157 -78.040204,9.22283 -8.761792,5.79828 -16.271835,19.80868 -16.271835,30.356 0,6.13293 1.693162,8.89548 10.502172,17.13528 l 10.502171,9.82355 12.725711,-1.0215 c 14.164947,-1.13702 31.686565,-8.85953 39.686315,-17.49141 7.31037,-7.88801 6.72484,-18.07416 -1.27679,-22.21197 -7.76924,-4.01762 -7.78693,-5.15282 -0.0803,-5.15282 6.81765,0 14.5082,6.80496 14.5082,12.83754 0,6.08949 -7.51922,19.16381 -14.30538,24.87398 -8.32466,7.00474 -27.295559,13.97303 -41.726814,15.32688 -10.105523,0.94803 -12.994806,0.35097 -20.997869,-4.33913 -5.103988,-2.99114 -9.694302,-4.73765 -10.200698,-3.88113 -0.986701,1.6689 3.258984,76.20107 6.663738,116.9806 6.524381,78.14406 4.244149,181.74835 -6.79432,308.70561 -5.711808,65.6935 -5.109365,73.12757 4.923223,60.75205 3.203144,-3.95119 5.692427,-4.62213 16.819428,-4.53344 8.225488,0.0656 15.539521,1.42035 19.758542,3.65991 8.131422,4.31634 8.10397,4.47556 3.66946,-21.28363 -6.428704,-37.34307 -13.798367,-116.45942 -10.54365,-113.19042 0.470276,0.47235 1.918564,10.59765 3.218416,22.50068 2.519001,23.06702 15.516387,103.88774 18.438309,114.6536 2.97292,10.95378 0.21812,11.85018 -14.808163,4.81853 -15.900522,-7.44074 -27.144251,-7.70213 -31.741837,-0.7379 -2.50365,3.79244 -2.40302,4.90584 0.795676,8.80374 6.413284,7.81515 36.431137,10.55308 47.973734,4.37566 z M 345.90955,146.03993 c -5.31031,-6.39853 -6.64877,-14.32812 -4.45788,-26.41016 1.84151,-10.15537 1.64738,-13.10377 -1.22909,-18.66625 -2.42471,-4.688878 -3.07953,-9.447241 -2.25646,-16.396866 l 1.15958,-9.790956 -9.67592,-2.053078 c -5.32176,-1.129193 -16.42098,-2.708142 -24.66487,-3.508775 -14.53271,-1.411389 -23.10776,-5.128063 -11.41214,-4.946351 10.93924,0.16996 54.37121,5.551277 55.72429,6.904364 0.7446,0.744596 0.24841,4.410754 -1.10264,8.147018 -3.14981,8.710683 -3.14223,18.387654 0.0169,21.546784 3.99373,3.99373 4.99457,2.91167 4.13301,-4.468346 -0.75008,-6.424933 3.47157,-18.195124 7.39606,-20.62058 0.91571,-0.565946 9.96551,0.848815 20.11066,3.143913 10.14516,2.295097 28.17741,5.278647 40.07166,6.630108 18.85483,2.142345 21.71963,2.977256 22.35722,6.515757 1.22669,6.807867 4.04133,8.162088 8.52699,4.102627 6.01238,-5.441119 5.4662,-11.380293 -1.04654,-11.380293 -7.80758,0 -8.93277,-5.892662 -2.22667,-11.661017 6.6289,-5.701939 11.64956,-6.491424 6.73306,-1.058754 -5.15686,5.698263 -4.34631,10.65864 1.74168,10.65864 7.27342,0 6.695,5.902124 -1.65071,16.844097 -8.60963,11.287978 -12.15992,11.382158 -14.33565,0.380283 -1.98762,-10.050801 -4.1188,-10.971868 -25.48154,-11.012844 -8.07028,-0.01548 -22.74162,-1.435157 -32.603,-3.154838 -9.86139,-1.719682 -18.79422,-2.592451 -19.85074,-1.939489 -1.05652,0.652962 -1.9148,6.929395 -1.9073,13.947629 0.007,7.018237 -1.07182,20.180497 -2.39845,29.249467 -2.97571,20.34224 -6.20005,25.5906 -11.67151,18.99791 z M 794.74902,126.7474 c -7.30508,-7.46858 -17.17678,-15.34962 -21.93712,-17.51341 -4.76035,-2.1638 -10.63039,-6.70812 -13.04457,-10.098497 -4.81985,-6.768878 -15.40015,-13.166005 -18.55283,-11.217542 -1.10034,0.680041 -2.09003,5.123612 -2.19936,9.874602 -0.1093,4.750987 -1.26868,13.739457 -2.57641,19.974377 -1.95255,9.30941 -3.20681,11.45398 -7.0152,11.99486 -5.13769,0.72967 -5.39163,-0.0709 -4.69667,-14.80673 0.46065,-9.76754 -4.50259,-25.259633 -9.15907,-28.588804 -4.66987,-3.338741 -38.12183,-1.636794 -50.01936,2.544851 -12.33391,4.335019 -31.88177,5.424186 -40.24985,2.242642 -6.97116,-2.650423 -9.89799,-0.05717 -12.78984,11.332071 -2.92784,11.53105 -6.37843,13.76781 -9.31678,6.03938 -2.76938,-7.28404 -2.61661,-11.369571 0.42519,-11.369571 1.37442,0 4.38883,-2.359201 6.69868,-5.242671 4.02493,-5.024519 5.27175,-5.274676 29.9638,-6.011817 14.17027,-0.423031 31.3292,-2.204579 38.13092,-3.958997 13.16329,-3.395297 27.32265,-4.158608 37.90001,-2.043136 4.83207,0.966414 6.7527,2.660513 7.59435,6.698673 2.16509,10.387515 9.1256,17.349249 9.1256,9.127194 0,-7.216023 5.93614,-12.99716 13.34566,-12.99716 9.18574,0 13.44904,1.804998 13.44904,5.694075 0,4.96499 10.08628,16.97836 14.25485,16.97836 2.05666,0 6.07824,1.83973 8.93682,4.0883 6.7899,5.34093 27.07512,28.77717 25.9135,29.93879 -0.49467,0.49468 -6.87628,-5.21125 -14.18136,-12.67984 z m 84.1627,-11.52646 c -9.88826,-5.84115 -17.64796,-10.95098 -17.24376,-11.35518 0.87231,-0.87232 36.25299,19.81255 36.25299,21.19487 0,1.41413 0.33896,1.58958 -19.00923,-9.83969 z M 603.1575,75.540006 c 5.08293,-6.124549 0.93025,-9.301335 -12.15867,-9.301335 -6.7704,0 -12.88306,-0.927509 -13.58368,-2.061131 -0.79859,-1.29213 3.65086,-2.06113 11.92571,-2.06113 10.16986,0 13.98247,0.865152 16.61066,3.769273 4.30915,4.761546 4.37605,9.847338 0.15088,11.468688 -5.03431,1.931851 -5.709,1.516176 -2.9449,-1.814365 z m -92.72909,-4.894625 c 1.70043,-1.069544 14.68556,-2.458995 28.85582,-3.08767 16.48168,-0.731221 22.79374,-0.508817 17.51962,0.6173 -12.93655,2.76217 -49.97628,4.735237 -46.37544,2.47037 z"
           style="fill:#64635d"
           id="path2861" />
      </g>
    </g>
  </g>
</svg>
